<svg id="rig" xmlns="http://www.w3.org/2000/svg" viewBox="0 0 36 36"><g id="b1-h1"><path d="M19.76,29.37c-4.61.12-14.19-2.59-11.4-11.51a6.46,6.46,0,0,1,1-3.17c-2.56-14.1,5-5.87,6.44-3.77a12.9,12.9,0,0,1,5.43.26c1.05-2.31,6.82-9.63,5.13,3.55a7.44,7.44,0,0,1,1.11,4C28.44,20.86,30.18,29.12,19.76,29.37Z" style="fill:#fa9223"/><path d="M19.66,29.33c-8.35.2-11.7-4.54-11.79-8-.09-3.87,6.3-2.3,7.52-.17,1.08-1.56,4.8-2.41,7.39-.7C29.39,15,31.32,29.57,19.66,29.33Zm4.63-18.19c-1.13,1.25-.28.7,1.23,2.53.26-.26,1.17-10.12-3-2.3A3.61,3.61,0,0,1,24.29,11.14Zm-12,.1a4.94,4.94,0,0,1,2,.08c-5.76-8.06-4.57,1.09-3.84,2.41C12.35,11.9,13.76,12.56,12.3,11.24Z" style="fill:#ece2d6"/><path d="M23.47,18.19c0,1.71-.95,1.71-.94,0S23.49,16.48,23.47,18.19Zm-7.85.23c0,1.73,1.24,1.73,1.22,0S15.61,16.69,15.62,18.42Zm4.57,4.36c3.33-1.53.62-3.21-1.47-2C17.68,21.49,19.91,22.9,20.19,22.78Z" style="fill:#52230f"/><path d="M21.78,17.41a3.49,3.49,0,0,0,2-1m-6,1a4.38,4.38,0,0,1-3-1m.31,5a5.87,5.87,0,0,1,4.69-2,4.71,4.71,0,0,1,4.09,1.91m-3.73,1,.05,1.87m2.91-.37c-1.63,1.58-2.91.37-2.91.37-1.78,1.24-3.85-.29-3.85-.29m4.42,1.56a1.08,1.08,0,0,1-1.13,0m-.19,3.94c-4.64.11-13.95-2.51-11.14-11.5a6.6,6.6,0,0,1,1-3.26C6.85.72,14.29,8.72,15.77,10.88a13,13,0,0,1,5.48.26c1.1-2.35,6.75-9.46,5.12,3.47a7.43,7.43,0,0,1,1.18,4.15C28.53,20.89,29.94,29.11,19.44,29.37Zm4.85-18.23a3.61,3.61,0,0,0-1.81.23c4.21-7.82,3.3,2,3,2.3C24,11.84,23.16,12.39,24.29,11.14ZM10.51,13.73c-.73-1.32-1.92-10.47,3.84-2.41a4.94,4.94,0,0,0-2-.08C13.76,12.56,12.35,11.9,10.51,13.73Z" style="fill:none;stroke:#52230f;stroke-miterlimit:10;stroke-width:0.30000000000000004px"/></g></svg>